# File created by Blade
# Date/Time:  Wed Jan 21 19:08:52 2015
# Frame Rate: 120.000 fps
#------------------------------------------------------
:FULLY-SPECIFIED
:DEGREES
2628
root -6.072087 31.994372 -4.923454 52.756899 27.537964 -4.618145
RightUpLeg -50.588657 -1.294746 15.530628
RightLeg -7.005457 -0.000000 0.000000
RightFoot -12.264146 -14.622823 18.931836
RightToeBase 18.221356 -0.000000 -0.000000
LeftUpLeg -42.484628 -13.359135 1.782498
LeftLeg -2.018366 -0.000000 0.000000
LeftFoot -8.753978 -15.639076 -9.584767
LeftToeBase 16.124206 -0.000000 -0.000000
Spine -46.272633 18.018147 29.529533
RightShoulder -16.556680 14.273690 -12.356354
RightArm -9.074801 -1.211823 67.479367
RightForeArm 11.539977 0.000000 7.287522
RightHand 16.364938 0.000000 -10.601616
RightHandThumb1 -24.326973 -0.000000 -32.862282
LeftShoulder -14.578118 -6.645247 63.164450
LeftArm 18.146073 -19.252370 -12.131610
LeftForeArm 6.422052 0.000000 -2.787174
LeftHand -18.976432 -0.000000 3.039553
LeftHandThumb1 -26.253704 0.000000 33.147579
Head -11.227596 -24.040730 38.190918
2629
root -6.049250 31.988660 -4.926972 52.890617 27.313002 -4.617872
RightUpLeg -50.629078 -1.220346 15.412157
RightLeg -7.162031 -0.000000 0.000000
RightFoot -12.182994 -14.527588 18.973332
RightToeBase 18.325066 -0.000000 -0.000000
LeftUpLeg -42.593641 -13.392443 1.818119
LeftLeg -2.066449 -0.000000 0.000000
LeftFoot -8.722421 -15.738687 -9.688553
LeftToeBase 15.975686 -0.000000 -0.000000
Spine -46.171076 18.258070 29.515919
RightShoulder -16.494330 14.468794 -12.179748
RightArm -9.086374 -1.398895 67.532122
RightForeArm 11.600009 0.000000 7.163542
RightHand 16.373080 -0.000000 -10.734931
RightHandThumb1 -24.326973 -0.000000 -32.862282
LeftShoulder -14.783986 -6.726914 63.485562
LeftArm 17.976426 -19.406354 -11.669897
LeftForeArm 6.403177 -0.000000 -2.673978
LeftHand -19.119422 0.000000 3.591378
LeftHandThumb1 -26.253704 0.000000 33.147579
Head -11.743576 -23.731252 38.619104
2630
root -6.026136 31.984028 -4.931239 53.016350 27.110785 -4.630709
RightUpLeg -50.688431 -1.192041 15.383066
RightLeg -7.281982 -0.000000 0.000000
RightFoot -12.084859 -14.390571 18.979923
RightToeBase 18.376232 -0.000000 -0.000000
LeftUpLeg -42.709385 -13.433700 1.868716
LeftLeg -2.104281 -0.000000 0.000000
LeftFoot -8.699580 -15.777709 -9.761000
LeftToeBase 15.909336 -0.000000 -0.000000
Spine -46.102963 18.522657 29.509647
RightShoulder -16.396019 14.553571 -11.972672
RightArm -9.115576 -1.288031 67.517487
RightForeArm 11.350476 -0.000000 7.230619
RightHand 16.243613 0.000000 -10.566140
RightHandThumb1 -24.326973 -0.000000 -32.862282
LeftShoulder -14.989202 -6.882414 63.736847
LeftArm 17.939933 -19.509693 -11.147471
LeftForeArm 6.295781 -0.000000 -2.662138
LeftHand -19.237769 -0.000000 4.117135
LeftHandThumb1 -26.253704 0.000000 33.147579
Head -12.168776 -23.445423 38.960716
2631
root -6.004948 31.979405 -4.937971 53.146175 26.876154 -4.652446
RightUpLeg -50.810439 -1.117373 15.309356
RightLeg -7.292518 -0.000000 0.000000
RightFoot -12.048469 -14.247504 19.028501
RightToeBase 18.371468 -0.000000 -0.000000
LeftUpLeg -42.839442 -13.412722 1.863424
LeftLeg -2.126670 -0.000000 0.000000
LeftFoot -8.710342 -15.884589 -9.752243
LeftToeBase 15.938573 -0.000000 -0.000000
Spine -46.011941 18.784785 29.502615
RightShoulder -16.342798 14.636438 -11.778646
RightArm -9.002952 -1.413086 67.576993
RightForeArm 11.411504 -0.000000 7.086499
RightHand 16.308083 -0.000000 -10.713923
RightHandThumb1 -24.326973 -0.000000 -32.862282
LeftShoulder -15.194527 -7.001452 63.990193
LeftArm 17.885278 -19.524893 -10.598009
LeftForeArm 6.229225 -0.000000 -2.695645
LeftHand -19.242515 -0.000000 4.216529
LeftHandThumb1 -26.253704 0.000000 33.147579
Head -12.579889 -23.133368 39.299949
2632
root -5.983044 31.974099 -4.939851 53.260332 26.635838 -4.676453
RightUpLeg -50.897169 -1.027003 15.210236
RightLeg -7.327414 -0.000000 0.000000
RightFoot -12.028071 -14.143454 19.072261
RightToeBase 18.373159 -0.000000 -0.000000
LeftUpLeg -42.939530 -13.389046 1.848980
LeftLeg -2.155852 -0.000000 0.000000
LeftFoot -8.684137 -15.954308 -9.817791
LeftToeBase 15.877351 -0.000000 -0.000000
Spine -45.932050 19.039768 29.504229
RightShoulder -16.251577 14.762588 -11.591093
RightArm -8.997002 -1.443511 67.606341
RightForeArm 11.405398 -0.000000 6.983400
RightHand 16.293186 0.000000 -10.819790
RightHandThumb1 -24.326973 -0.000000 -32.862282
LeftShoulder -15.354966 -7.238838 64.266775
LeftArm 17.784976 -19.483899 -10.077798
LeftForeArm 5.977737 0.000000 -2.687591
LeftHand -19.420035 -0.000000 5.194380
LeftHandThumb1 -26.253704 0.000000 33.147579
Head -12.916632 -22.856458 39.583478
2633
root -5.965221 31.969769 -4.944935 53.372182 26.421888 -4.715900
RightUpLeg -51.022585 -0.952869 15.172549
RightLeg -7.302499 -0.000000 0.000000
RightFoot -11.997264 -14.025874 19.019721
RightToeBase 18.415926 -0.000000 -0.000000
LeftUpLeg -43.067803 -13.365877 1.858561
LeftLeg -2.159452 -0.000000 0.000000
LeftFoot -8.692241 -16.003717 -9.862905
LeftToeBase 15.865010 -0.000000 -0.000000
Spine -45.835034 19.238004 29.558732
RightShoulder -16.075168 14.877985 -11.350820
RightArm -9.000009 -1.511397 67.614307
RightForeArm 11.349377 -0.000000 6.924028
RightHand 16.199676 -0.000000 -10.732339
RightHandThumb1 -24.326973 -0.000000 -32.862282
LeftShoulder -15.585000 -7.348276 64.509627
LeftArm 17.816101 -19.548329 -9.538363
LeftForeArm 5.909187 -0.000000 -2.768139
LeftHand -19.502672 0.000000 5.607811
LeftHandThumb1 -26.253704 0.000000 33.147579
Head -13.227866 -22.468149 39.905914
2634
root -5.948509 31.965315 -4.950828 53.492127 26.201847 -4.740781
RightUpLeg -51.158024 -0.842131 15.062130
RightLeg -7.265727 -0.000000 0.000000
RightFoot -12.001683 -13.953935 19.021493
RightToeBase 18.441747 -0.000000 -0.000000
LeftUpLeg -43.201720 -13.379911 1.879395
LeftLeg -2.171016 -0.000000 0.000000
LeftFoot -8.710715 -15.998070 -9.903352
LeftToeBase 15.924881 -0.000000 -0.000000
Spine -45.764442 19.447546 29.585345
RightShoulder -15.900748 14.956942 -11.103348
RightArm -8.970678 -1.534284 67.616636
RightForeArm 11.282007 0.000000 6.825583
RightHand 16.325769 -0.000000 -10.798706
RightHandThumb1 -24.326973 -0.000000 -32.862282
LeftShoulder -15.745139 -7.424523 64.774050
LeftArm 17.778170 -19.736187 -9.097535
LeftForeArm 6.105176 0.000000 -2.743593
LeftHand -19.660073 -0.000000 5.629645
LeftHandThumb1 -26.253704 0.000000 33.147579
Head -13.495804 -22.054127 40.184833
2635
root -5.932103 31.959845 -4.951223 53.568178 26.000923 -4.772569
RightUpLeg -51.192700 -0.746778 14.965304
RightLeg -7.338766 -0.000000 0.000000
RightFoot -11.972358 -13.878037 19.073291
RightToeBase 18.490727 -0.000000 -0.000000
LeftUpLeg -43.269784 -13.429711 1.928572
LeftLeg -2.240836 -0.000000 0.000000
LeftFoot -8.763030 -16.031658 -9.912206
LeftToeBase 16.055132 -0.000000 -0.000000
Spine -45.680597 19.635768 29.622810
RightShoulder -15.757616 15.092007 -10.885132
RightArm -9.024178 -1.631011 67.628524
RightForeArm 11.272893 -0.000000 6.759328
RightHand 16.275141 -0.000000 -10.733706
RightHandThumb1 -24.326973 -0.000000 -32.862282
LeftShoulder -15.902752 -7.630393 65.028750
LeftArm 17.787159 -19.778749 -8.584168
LeftForeArm 6.042370 -0.000000 -2.807199
LeftHand -19.747508 -0.000000 6.225687
LeftHandThumb1 -26.253704 0.000000 33.147579
Head -13.722337 -21.767551 40.448899
2636
root -5.919747 31.954945 -4.954650 53.673336 25.816142 -4.796599
RightUpLeg -51.258703 -0.599615 14.800723
RightLeg -7.413047 -0.000000 0.000000
RightFoot -11.930778 -13.908973 19.075585
RightToeBase 18.502986 -0.000000 -0.000000
LeftUpLeg -43.390131 -13.458035 1.972272
LeftLeg -2.256406 -0.000000 0.000000
LeftFoot -8.835012 -16.000689 -9.958199
LeftToeBase 16.182638 -0.000000 -0.000000
Spine -45.604741 19.789888 29.687287
RightShoulder -15.594645 15.166713 -10.627652
RightArm -8.972323 -1.681728 67.627914
RightForeArm 11.144773 0.000000 6.663001
RightHand 16.042649 0.000000 -10.739665
RightHandThumb1 -24.326973 -0.000000 -32.862282
LeftShoulder -16.090825 -7.765379 65.223818
LeftArm 17.840721 -19.989127 -8.068914
LeftForeArm 6.010716 -0.000000 -2.865636
LeftHand -19.720564 0.000000 6.589188
LeftHandThumb1 -26.253704 0.000000 33.147579
Head -13.940660 -21.466846 40.715364
2637
root -5.906576 31.951124 -4.957186 53.764964 25.644655 -4.812441
RightUpLeg -51.314505 -0.477894 14.656333
RightLeg -7.481378 -0.000000 0.000000
RightFoot -11.882066 -13.934053 19.061026
RightToeBase 18.469050 -0.000000 -0.000000
LeftUpLeg -43.498418 -13.415096 1.932089
LeftLeg -2.220063 -0.000000 0.000000
LeftFoot -8.875087 -16.080600 -10.012129
LeftToeBase 16.179719 -0.000000 -0.000000
Spine -45.527564 19.919952 29.768964
RightShoulder -15.421848 15.330990 -10.397790
RightArm -9.000644 -1.835882 67.630842
RightForeArm 11.174870 -0.000000 6.551039
RightHand 15.986359 -0.000000 -10.835274
RightHandThumb1 -24.326973 -0.000000 -32.862282
LeftShoulder -16.257694 -7.886834 65.464763
LeftArm 17.859091 -20.186981 -7.637073
LeftForeArm 6.277038 -0.000000 -2.841120
LeftHand -19.861286 -0.000000 6.542154
LeftHandThumb1 -26.253704 0.000000 33.147579
Head -14.112702 -21.211526 40.956200
2638
root -5.893444 31.945792 -4.956877 53.822723 25.494403 -4.823443
RightUpLeg -51.333247 -0.386098 14.528803
RightLeg -7.543042 -0.000000 0.000000
RightFoot -11.862930 -13.931470 19.055780
RightToeBase 18.466752 -0.000000 -0.000000
LeftUpLeg -43.551807 -13.418029 1.915261
LeftLeg -2.215356 -0.000000 0.000000
LeftFoot -8.923848 -16.060733 -10.086378
LeftToeBase 16.170107 -0.000000 -0.000000
Spine -45.436649 20.016070 29.871465
RightShoulder -15.268866 15.393168 -10.173083
RightArm -8.918612 -2.114267 67.682238
RightForeArm 11.256266 0.000000 6.321022
RightHand 16.175479 -0.000000 -10.827964
RightHandThumb1 -24.326973 -0.000000 -32.862282
LeftShoulder -16.382367 -8.192978 65.669143
LeftArm 17.807189 -20.296928 -7.082766
LeftForeArm 6.211586 -0.000000 -2.792626
LeftHand -19.919865 -0.000000 7.060322
LeftHandThumb1 -26.253704 0.000000 33.147579
Head -14.266960 -20.979564 41.181911
2639
root -5.884140 31.939106 -4.955159 53.830175 25.364358 -4.862086
RightUpLeg -51.298636 -0.285548 14.425064
RightLeg -7.626500 -0.000000 0.000000
RightFoot -11.843659 -13.933340 19.066710
RightToeBase 18.562386 -0.000000 -0.000000
LeftUpLeg -43.549781 -13.420774 1.933538
LeftLeg -2.247484 -0.000000 0.000000
LeftFoot -8.980011 -16.020767 -10.299148
LeftToeBase 16.199566 -0.000000 -0.000000
Spine -45.308529 20.112476 30.000668
RightShoulder -15.128520 15.491034 -9.953917
RightArm -8.949663 -2.142163 67.692882
RightForeArm 11.242490 -0.000000 6.296621
RightHand 16.005143 -0.000000 -10.733813
RightHandThumb1 -24.326973 -0.000000 -32.862282
LeftShoulder -16.523788 -8.291553 65.842186
LeftArm 17.849561 -20.528436 -6.594514
LeftForeArm 6.274868 -0.000000 -2.786075
LeftHand -19.881045 -0.000000 6.829884
LeftHandThumb1 -26.253704 0.000000 33.147579
Head -14.454989 -20.800870 41.421916
2640
root -5.875170 31.931900 -4.953361 53.789899 25.267049 -4.924242
RightUpLeg -51.228849 -0.202157 14.372175
RightLeg -7.701363 -0.000000 0.000000
RightFoot -11.819200 -13.931186 19.082258
RightToeBase 18.527595 -0.000000 -0.000000
LeftUpLeg -43.507216 -13.414181 1.965257
LeftLeg -2.282035 -0.000000 0.000000
LeftFoot -9.099717 -15.976940 -10.356947
LeftToeBase 16.221705 -0.000000 -0.000000
Spine -45.150075 20.188587 30.179835
RightShoulder -14.968567 15.528816 -9.743227
RightArm -8.945071 -2.182204 67.728894
RightForeArm 11.131697 -0.000000 6.228088
RightHand 16.175423 -0.000000 -10.834080
RightHandThumb1 -24.326973 -0.000000 -32.862282
LeftShoulder -16.654874 -8.456656 66.028393
LeftArm 17.882393 -20.702550 -6.125297
LeftForeArm 6.223686 0.000000 -2.734978
LeftHand -20.008910 -0.000000 6.964579
LeftHandThumb1 -26.253704 0.000000 33.147579
Head -14.617829 -20.634642 41.638635
